<svg width="734" height="733" viewBox="0 0 734 733" fill="none" xmlns="http://www.w3.org/2000/svg">
<path d="M497.607 518.125C491.185 500.227 511.012 484.311 527.098 494.452L689.64 596.919C701.155 604.178 702.211 620.571 691.722 629.248L594.733 709.485C584.053 718.321 567.841 713.876 563.16 700.829L497.607 518.125Z" fill="black" fill-opacity="0.25"/>
<path d="M614.589 281.864L43.939 17.3642C30.6308 11.1958 15.4303 20.9764 15.5289 35.6443L18.1405 424.095C18.1919 431.739 22.5962 438.685 29.4883 441.992L580.811 706.515C593.752 712.725 608.827 703.684 609.444 689.343L626.16 300.869C626.509 292.775 621.94 285.27 614.589 281.864Z" fill="#B8BAFF" stroke="#B8BAFF"/>
<path d="M598.12 294.829L29.2608 26.4993C15.9944 20.2416 0.728394 29.9197 0.728394 44.5879V433.047C0.728394 440.692 5.08591 447.667 11.9557 451.021L561.487 719.244C574.386 725.54 589.522 716.601 590.235 702.265L609.563 313.912C609.966 305.82 605.447 298.285 598.12 294.829Z" fill="#393EB6" stroke="#393EB6"/>
<path d="M516.675 417.273L309.995 319.771C303.362 316.642 295.728 321.481 295.728 328.815V467.892C295.728 471.714 297.907 475.202 301.342 476.879L501.1 574.392C507.55 577.54 515.118 573.07 515.474 565.902L522.396 426.814C522.597 422.769 520.338 419.001 516.675 417.273Z" fill="white"/>
<rect x="309.58" y="286.041" width="122.279" height="9" rx="4.5" transform="rotate(25.335 309.58 286.041)" fill="white"/>
<rect x="300.58" y="518.041" width="122.279" height="9" rx="4.5" transform="rotate(25.335 300.58 518.041)" fill="white"/>
<rect x="309.58" y="260.041" width="93.2944" height="9" rx="4.5" transform="rotate(25.335 309.58 260.041)" fill="white"/>
<rect x="297.58" y="491.041" width="93.2944" height="9" rx="4.5" transform="rotate(25.335 297.58 491.041)" fill="white"/>
<line x1="52.2693" y1="203.499" x2="55.055" y2="372.502" stroke="white" stroke-width="5" stroke-linecap="round" stroke-linejoin="round"/>
<line x1="228.387" y1="458.197" x2="55.8845" y2="374.382" stroke="white" stroke-width="5" stroke-linecap="round" stroke-linejoin="round"/>
<line x1="81.2284" y1="208.541" x2="81.2284" y2="381.541" stroke="white" stroke-linecap="round" stroke-dasharray="2 3"/>
<line x1="113.228" y1="224.541" x2="113.228" y2="397.541" stroke="white" stroke-linecap="round" stroke-dasharray="2 3"/>
<line x1="144.228" y1="240.541" x2="144.228" y2="413.541" stroke="white" stroke-linecap="round" stroke-dasharray="2 3"/>
<line x1="174.228" y1="256.541" x2="174.228" y2="429.541" stroke="white" stroke-linecap="round" stroke-dasharray="2 3"/>
<line x1="204.228" y1="272.541" x2="204.228" y2="445.541" stroke="white" stroke-linecap="round" stroke-dasharray="2 3"/>
<line x1="230.228" y1="288.541" x2="230.228" y2="461.541" stroke="white" stroke-linecap="round" stroke-dasharray="2 3"/>
<path d="M57.7284 370.54C61.2284 363.374 54.7284 349.541 93.2284 359.541C133.857 370.093 106.228 321.041 172.728 328.541C197.728 288.041 219.228 284.54 230.228 287.54V455.54L57.7284 370.54Z" fill="url(#paint0_linear)"/>
<path d="M0.133579 43.1864C0.304956 28.6194 15.4939 19.117 28.6684 25.3348L598.579 294.307C605.927 297.774 610.446 305.343 610.015 313.456L608.228 347.041L0 64.0406V54.5406L0.133579 43.1864Z" fill="#102C8D"/>
<circle cx="25.7284" cy="51.0406" r="8" fill="#518FD7"/>
<circle cx="49.7284" cy="63.0406" r="8" fill="#D99292"/>
<circle cx="74.7284" cy="76.0405" r="8" fill="#C6DB99"/>
<path d="M447.194 446.245C447.194 456.973 443.654 467.401 437.123 475.912C430.593 484.423 421.436 490.541 411.074 493.317C400.712 496.094 389.723 495.374 379.812 491.268C369.901 487.163 361.621 479.902 356.257 470.611C350.893 461.321 348.745 450.52 350.145 439.884C351.546 429.248 356.416 419.372 364.002 411.786C371.588 404.2 381.464 399.33 392.1 397.929C402.736 396.529 413.537 398.678 422.827 404.041L398.461 446.245H447.194Z" fill="#393EB6"/>
<path d="M431.519 398.201C438.795 402.165 444.94 407.918 449.374 414.917C453.808 421.917 456.384 429.931 456.859 438.203L408.207 440.996L431.519 398.201Z" fill="#F0A20C"/>
<defs>
<linearGradient id="paint0_linear" x1="143.978" y1="287.541" x2="57.7285" y2="444.541" gradientUnits="userSpaceOnUse">
<stop stop-color="#F0A20C" stop-opacity="0.73"/>
<stop offset="1" stop-color="#F0A20C" stop-opacity="0"/>
</linearGradient>
</defs>
</svg>
