<svg width="618" height="560" viewBox="0 0 618 560" fill="none" xmlns="http://www.w3.org/2000/svg">
<mask id="mask0" mask-type="alpha" maskUnits="userSpaceOnUse" x="355" y="175" width="236" height="264">
<path fill-rule="evenodd" clip-rule="evenodd" d="M531.496 232.21C533.515 235.865 536.037 238.524 537.678 238.981C541.794 240.126 549.689 227.212 549.9 220.445C550.111 213.679 537.162 203.201 530.535 213.022C528.234 216.431 527.896 220.462 528.606 224.322L514.02 240.459L525.499 247.086L531.496 232.21Z" fill="#B28B67"/>
<path fill-rule="evenodd" clip-rule="evenodd" d="M550.307 218.009C550.566 217.327 550.942 217.136 549.448 213.928C547.953 210.72 545.099 206.307 540.496 204.853C534.523 202.966 530.402 205.246 527.379 205.765C524.654 206.233 522.703 205.345 520.511 206.613C518.32 207.881 514.581 213.011 514.278 215.734C513.861 219.49 515.984 221.792 517.376 223.748C519.763 227.101 525.25 228.182 525.51 227.987C527.526 226.478 535.414 223.492 539.566 222.722C542.619 222.155 549.087 221.212 550.307 218.009Z" fill="#5C63AB"/>
<mask id="mask1" maskUnits="userSpaceOnUse" x="514" y="204" width="37" height="25">
<path fill-rule="evenodd" clip-rule="evenodd" d="M550.307 218.009C550.566 217.327 550.942 217.136 549.448 213.928C547.953 210.72 545.099 206.307 540.496 204.853C534.523 202.966 530.402 205.246 527.379 205.765C524.654 206.233 522.703 205.345 520.511 206.613C518.32 207.881 514.581 213.011 514.278 215.734C513.861 219.49 515.984 221.792 517.376 223.748C519.763 227.101 525.25 228.182 525.51 227.987C527.526 226.478 535.414 223.492 539.566 222.722C542.619 222.155 549.087 221.212 550.307 218.009Z" fill="white"/>
</mask>
<g mask="url(#mask1)">
<path fill-rule="evenodd" clip-rule="evenodd" d="M526.19 223.394C524.609 213.455 528.031 204.545 528.031 204.545L525.774 204.637C525.774 204.637 522.656 214.732 526.19 223.394ZM526.13 228.319C521.754 215.385 524.7 205.391 524.7 205.391L522.462 204.851C522.462 204.851 519.434 216.181 526.13 228.319Z" fill="black" fill-opacity="0.2"/>
</g>
<path fill-rule="evenodd" clip-rule="evenodd" d="M483.064 276.439L467.048 345.683L446.85 400.774L453.676 404.715L507.369 290.471L483.064 276.439Z" fill="#997659"/>
<path fill-rule="evenodd" clip-rule="evenodd" d="M476.635 272.727C459.194 305.754 448.132 321.596 446.163 324.375C444.195 327.154 429.46 344.035 399.813 374.932L408.532 376.628C441.597 351.683 456.277 337.273 460.386 333.863C464.495 330.453 478.937 315.285 503.712 288.359L476.635 272.727Z" fill="#B28B67"/>
<path fill-rule="evenodd" clip-rule="evenodd" d="M403.562 373.431C402.827 372.518 401.485 372.284 400.612 373.067C399.846 373.754 399.031 374.562 398.681 375.169C397.933 376.464 396.93 379.195 396.93 379.195C398.429 380.061 423.867 394.747 423.867 394.747C423.867 394.747 426.925 391.875 424.822 390.292C422.72 388.709 421.353 387.621 421.353 387.621L412.334 375.175C412.003 374.719 411.36 374.626 410.913 374.97L409.345 376.18C409.345 376.18 406.686 375.949 405.376 375.194C404.799 374.86 404.13 374.137 403.562 373.431Z" fill="#E4E4E4"/>
<path fill-rule="evenodd" clip-rule="evenodd" d="M448.455 399.35C447.72 398.437 446.377 398.203 445.505 398.986C444.739 399.673 443.924 400.481 443.573 401.088C442.826 402.383 441.823 405.114 441.823 405.114C443.321 405.979 468.759 420.666 468.759 420.666C468.759 420.666 471.817 417.794 469.715 416.211C467.613 414.628 466.246 413.54 466.246 413.54L457.226 401.094C456.895 400.638 456.253 400.545 455.806 400.889L454.238 402.098C454.238 402.098 451.578 401.868 450.269 401.112C449.692 400.779 449.023 400.056 448.455 399.35Z" fill="#E4E4E4"/>
<path fill-rule="evenodd" clip-rule="evenodd" d="M480.676 275.06L471.001 309.465L494.341 322.94L508.177 290.938L480.676 275.06Z" fill="#69A1AC"/>
<path fill-rule="evenodd" clip-rule="evenodd" d="M476.378 272.578C466.067 281.728 457.629 301.744 457.629 301.744L481.446 315.495L505.312 289.283L476.378 272.578Z" fill="#89C5CC"/>
<path fill-rule="evenodd" clip-rule="evenodd" d="M576.56 266.84L556.202 258.895L554.942 269.189L573.655 271.675C579.92 275.997 583.209 277.618 583.523 276.537C583.787 275.626 583.219 274.992 582.695 274.407C582.287 273.951 581.906 273.526 581.967 273.025C582.107 271.879 585.335 271.134 588.428 270.558C591.522 269.982 590.276 268.869 589.366 268.398C585.775 267.372 581.506 266.853 576.56 266.84ZM537.995 307.81L532.063 286.788L523.078 291.963L532.379 308.394C532.705 315.99 533.394 319.589 534.446 319.191C535.334 318.855 535.498 318.02 535.649 317.25C535.767 316.651 535.877 316.092 536.314 315.84C537.314 315.264 539.857 317.393 542.183 319.516C544.509 321.64 544.647 319.977 544.474 318.968C543.127 315.485 540.967 311.766 537.995 307.81Z" fill="#B28B67"/>
<path fill-rule="evenodd" clip-rule="evenodd" d="M531.911 242.537C528.477 262.514 530.981 281.841 538.069 305.436L526.792 307.502C514.225 287.113 507.98 275.856 513.781 258.979C515.236 254.743 522.742 243.478 526.424 237.342L531.911 242.537Z" fill="#2026A2"/>
<path fill-rule="evenodd" clip-rule="evenodd" d="M474.149 272.906L507.66 299.087C507.66 299.087 523.357 255.528 533.203 242.416C533.537 241.971 533.33 240.562 532.891 240.383C528.08 238.414 525.103 232.96 525.103 232.96C507.194 239.507 492.178 253.064 474.149 272.906Z" fill="#F2F2F2"/>
<path fill-rule="evenodd" clip-rule="evenodd" d="M518.306 258.986C506.031 285.485 491.457 303.642 479.902 294.615L462.034 280.655C474.07 259.4 502.151 238.831 519.468 230.919C520.129 230.617 521.44 230.098 522.764 231.132L527.956 235.189C527.953 235.197 527.95 235.206 527.947 235.215C529.499 236.448 531.175 237.849 532.99 239.367C542.334 247.179 555.363 258.072 574.181 265.007L569.041 275.245C548.643 273.353 529.61 269.362 518.306 258.986Z" fill="#1F28CF"/>
</mask>
<g mask="url(#mask0)">
<rect x="380.756" y="139.81" width="234.95" height="304.564" fill="black" fill-opacity="0.26"/>
</g>
<path fill-rule="evenodd" clip-rule="evenodd" d="M461.262 74.9763C467.73 78.8605 474.086 80.7371 477.069 79.971C484.549 78.05 485.237 50.7853 479.449 40.0367C473.661 29.2882 443.906 24.6033 442.406 45.8996C441.885 53.2909 445 59.8871 449.603 65.2696L441.35 103.592H465.322L461.262 74.9763Z" fill="#B28B67"/>
<path fill-rule="evenodd" clip-rule="evenodd" d="M477.884 35.8689C477.674 34.5701 478.089 33.9327 472.848 30.2738C467.607 26.6148 459.144 22.2994 450.621 24.1775C439.56 26.6148 435.167 33.8841 430.901 37.4181C427.056 40.6041 423.198 40.9756 420.911 44.9288C418.625 48.882 417.409 60.2552 419.397 64.7768C422.139 71.0142 427.548 72.694 431.496 74.491C438.267 77.5728 447.837 74.318 448.069 73.7788C449.862 69.608 459.516 57.8426 465.322 52.8995C469.592 49.2647 478.869 41.9645 477.884 35.8689Z" fill="#5C63AB"/>
<mask id="mask2" mask-type="alpha" maskUnits="userSpaceOnUse" x="418" y="23" width="60" height="53">
<path fill-rule="evenodd" clip-rule="evenodd" d="M477.884 35.8689C477.674 34.5701 478.089 33.9327 472.848 30.2738C467.607 26.6148 459.144 22.2994 450.621 24.1775C439.56 26.6148 435.167 33.8841 430.901 37.4181C427.056 40.6041 423.198 40.9756 420.911 44.9288C418.625 48.882 417.409 60.2552 419.397 64.7768C422.139 71.0142 427.548 72.694 431.496 74.491C438.267 77.5728 447.837 74.318 448.069 73.7788C449.862 69.608 459.516 57.8426 465.322 52.8995C469.592 49.2647 478.869 41.9645 477.884 35.8689Z" fill="white"/>
</mask>
<g mask="url(#mask2)">
<path fill-rule="evenodd" clip-rule="evenodd" d="M444.98 65.9989C433.517 51.9143 430.82 34.9278 430.82 34.9278L427.367 37.1037C427.367 37.1037 431.613 55.6663 444.98 65.9989ZM449.341 73.738C430.79 57.4985 426.366 39.2488 426.366 39.2488L422.372 40.4219C422.372 40.4219 427.876 60.8295 449.341 73.738Z" fill="black" fill-opacity="0.2"/>
</g>
<path fill-rule="evenodd" clip-rule="evenodd" d="M425.402 187.626L462.933 310.108L481.114 414.272H495.369L476.158 187.626H425.402Z" fill="#997659"/>
<path fill-rule="evenodd" clip-rule="evenodd" d="M411.975 187.626C414.524 254.875 411.524 289.564 410.954 295.674C410.383 301.783 402.57 341.4 384.075 416.323L399.265 411.115C428.495 342.4 438.456 306.688 441.808 297.665C445.161 288.642 454.065 251.962 468.52 187.626H411.975Z" fill="#B28B67"/>
<path fill-rule="evenodd" clip-rule="evenodd" d="M386.957 409.928C385.885 409.458 384.613 409.935 384.214 411.034C383.488 413.033 382.515 416.026 382.515 417.714C382.515 420.407 383.414 425.573 383.414 425.573C386.544 425.573 439.667 425.573 439.667 425.573C439.667 425.573 441.859 418.337 437.135 417.76C432.411 417.183 429.286 416.718 429.286 416.718L403.142 405.084C402.628 404.855 402.026 405.095 401.811 405.616L400.132 409.682C400.132 409.682 395.758 411.719 393.024 411.719C391.361 411.719 388.748 410.715 386.957 409.928Z" fill="#E4E4E4"/>
<path fill-rule="evenodd" clip-rule="evenodd" d="M480.708 409.928C479.637 409.458 478.364 409.935 477.965 411.034C477.239 413.033 476.267 416.026 476.267 417.714C476.267 420.407 477.165 425.573 477.165 425.573C480.295 425.573 533.418 425.573 533.418 425.573C533.418 425.573 535.611 418.337 530.886 417.76C526.162 417.183 523.037 416.718 523.037 416.718L496.893 405.084C496.379 404.855 495.777 405.095 495.562 405.616L493.883 409.682C493.883 409.682 489.51 411.719 486.775 411.719C485.112 411.719 482.499 410.715 480.708 409.928Z" fill="#E4E4E4"/>
<path fill-rule="evenodd" clip-rule="evenodd" d="M420.415 187.626L436.372 250.029H485.113L477.846 187.626H420.415Z" fill="#69A1AC"/>
<path fill-rule="evenodd" clip-rule="evenodd" d="M411.439 187.626C403.563 211.192 408.447 250.029 408.447 250.029H458.185L471.862 187.626H411.439Z" fill="#89C5CC"/>
<path fill-rule="evenodd" clip-rule="evenodd" d="M563.16 88.4142L524.09 94.3575L531.425 111.557L562.982 98.577C576.703 99.6765 583.32 99.242 582.834 97.2736C582.425 95.614 580.96 95.1359 579.61 94.6955C578.559 94.3524 577.578 94.0322 577.221 93.1942C576.405 91.2804 580.786 87.2097 585.11 83.5235C589.434 79.8374 586.477 79.2234 584.626 79.3084C578.073 80.9436 570.918 83.9788 563.16 88.4142ZM539.804 187.091L511.504 159.631L502.11 175.801L531.537 193.061C538.917 204.621 543.251 209.616 544.539 208.047C545.625 206.723 545.126 205.272 544.667 203.935C544.31 202.894 543.976 201.922 544.434 201.134C545.479 199.335 551.386 200.367 556.95 201.585C562.514 202.803 561.226 200.084 560.043 198.665C554.784 194.443 548.038 190.585 539.804 187.091Z" fill="#B28B67"/>
<path fill-rule="evenodd" clip-rule="evenodd" d="M471.251 90.7166C483.938 124.984 505.338 152.887 537.775 183.32L521.979 196.704C483.859 176.209 463.899 164.269 457.722 132.707C456.172 124.786 457.741 100.445 457.96 87.5536L471.251 90.7166Z" fill="#2026A2"/>
<path fill-rule="evenodd" clip-rule="evenodd" d="M408.244 190.145L484.406 200.809C484.406 200.809 469.6 118.695 473.166 89.3645C473.287 88.3676 471.688 86.3572 470.838 86.4723C461.524 87.7344 451.928 81.9053 451.928 81.9053C429.799 108.257 418.539 142.939 408.244 190.145Z" fill="#F2F2F2"/>
<path fill-rule="evenodd" clip-rule="evenodd" d="M464.817 128.641C469.554 181.051 463.146 222.515 436.884 218.838L396.275 213.152C395.906 169.141 421.289 111.745 441.256 83.7981C442.019 82.7309 443.603 80.7395 446.612 81.1609L458.412 82.8131C458.415 82.8294 458.418 82.8457 458.421 82.8619C461.968 83.3881 465.86 84.0647 470.075 84.7975C491.774 88.5698 522.031 93.8298 557.777 87.6981L558.982 108.304C525.323 123.729 491.904 134.649 464.817 128.641Z" fill="#1F28CF"/>
<mask id="mask3" mask-type="alpha" maskUnits="userSpaceOnUse" x="107" y="286" width="226" height="274">
<path fill-rule="evenodd" clip-rule="evenodd" d="M281.764 346.018C283.635 349.888 286.022 352.733 287.609 353.256C291.588 354.566 299.622 341.319 300.006 334.267C300.391 327.216 288.053 315.919 281.336 325.976C279.004 329.466 278.568 333.662 279.158 337.707L264.52 354.127L275.528 361.365L281.764 346.018Z" fill="#B28B67"/>
<path fill-rule="evenodd" clip-rule="evenodd" d="M289.879 333.192C291.702 332.3 293.281 331.743 294.856 331.853C299.648 335.117 300.748 334.56 302.543 331.43C302.105 330.317 299.926 327.495 297 325.18C295.701 323.662 293.782 322.525 291.522 322.148C288.916 321.363 286.203 321.579 283.814 323.752C277.627 327.327 276.593 334.603 278.533 338.596C279.946 338.096 281.236 337.56 282.425 337.017C282.22 336.145 282.331 335.19 282.805 334.364C283.738 332.737 285.727 332.228 287.247 333.227C287.359 333.3 287.465 333.38 287.565 333.465C286.467 335.545 282.8 342.613 282.167 345.49C281.422 348.882 286.111 352.919 287.885 354.085C289.418 355.092 290.256 353.505 290.858 352.367C290.944 352.203 291.026 352.048 291.104 351.912C291.267 351.628 290.921 351.401 290.53 351.146C290.023 350.813 289.439 350.432 289.797 349.809C290.186 349.13 291.361 349.186 292.412 349.235C293.068 349.266 293.675 349.295 294.014 349.141C295.084 348.658 295.944 347.623 295.077 347.053C294.602 346.741 293.784 346.606 292.799 346.443C291.313 346.198 289.448 345.89 287.816 344.817C285.121 343.045 289.82 333.314 289.879 333.192Z" fill="#191847"/>
<path fill-rule="evenodd" clip-rule="evenodd" d="M233.408 390.78L215.972 462.556L194.835 519.448L201.381 523.752L256.716 406.106L233.408 390.78Z" fill="#997659"/>
<path fill-rule="evenodd" clip-rule="evenodd" d="M227.242 386.726C209.376 420.682 198.179 436.895 196.188 439.737C194.196 442.58 179.394 459.772 149.692 491.16L158.142 493.176C191.016 468.093 205.699 453.477 209.793 450.037C213.887 446.596 228.359 431.184 253.209 403.8L227.242 386.726Z" fill="#B28B67"/>
<path fill-rule="evenodd" clip-rule="evenodd" d="M153.416 489.745C152.709 488.756 151.381 488.453 150.516 489.24C149.752 489.934 148.939 490.753 148.582 491.375C147.82 492.704 146.77 495.525 146.77 495.525C148.207 496.47 172.602 512.51 172.602 512.51C172.602 512.51 175.658 509.601 173.651 507.89C171.645 506.179 170.342 505.006 170.342 505.006L161.897 491.789C161.582 491.295 160.946 491.17 160.504 491.515L158.945 492.731C158.945 492.731 156.36 492.416 155.105 491.59C154.563 491.233 153.944 490.483 153.416 489.745Z" fill="#E4E4E4"/>
<path fill-rule="evenodd" clip-rule="evenodd" d="M196.468 518.052C195.761 517.064 194.434 516.761 193.568 517.548C192.805 518.242 191.992 519.06 191.634 519.683C190.872 521.012 189.822 523.833 189.822 523.833C191.26 524.778 215.655 540.818 215.655 540.818C215.655 540.818 218.71 537.909 216.704 536.198C214.698 534.487 213.394 533.314 213.394 533.314L204.949 520.097C204.634 519.603 203.998 519.478 203.556 519.823L201.998 521.039C201.998 521.039 199.413 520.723 198.157 519.898C197.615 519.541 196.996 518.79 196.468 518.052Z" fill="#E4E4E4"/>
<path fill-rule="evenodd" clip-rule="evenodd" d="M231.118 389.275L220.781 424.888L243.164 439.605L257.491 406.616L231.118 389.275Z" fill="#69A1AC"/>
<path fill-rule="evenodd" clip-rule="evenodd" d="M226.996 386.564C216.708 395.816 207.957 416.456 207.957 416.456L230.798 431.474L254.743 404.809L226.996 386.564Z" fill="#89C5CC"/>
<path fill-rule="evenodd" clip-rule="evenodd" d="M278.809 436.647L276.508 413.993L267.033 417.761L273.315 436.275C272.399 444.146 272.48 447.968 273.556 447.74C274.463 447.549 274.756 446.718 275.026 445.953C275.236 445.356 275.432 444.8 275.894 444.617C276.948 444.197 279.048 446.828 280.94 449.415C282.833 452.003 283.235 450.316 283.232 449.248C282.501 445.432 281.026 441.231 278.809 436.647ZM195.773 393.175C199.024 391.614 222.992 369.576 222.992 369.576L231.637 377.282C231.637 377.282 202.225 397.891 200.277 399.021C197.746 400.488 196.689 404.938 195.973 407.955C195.862 408.422 195.759 408.854 195.661 409.236C193.841 408.696 193.795 407.363 193.747 405.958C193.693 404.371 193.635 402.691 191.015 401.958C190.003 401.675 188.978 401.493 187.978 401.315C184.521 400.7 181.346 400.136 179.912 395.628C179.684 394.913 180.064 393.315 181.982 393.501C186.762 393.964 194.184 393.938 195.773 393.175Z" fill="#B28B67"/>
<path fill-rule="evenodd" clip-rule="evenodd" d="M277.644 352.479L281.74 354.995C275.193 376.954 274.417 401.481 279.412 428.576L256.125 433.393C255.54 400.586 261.329 372.391 277.644 352.479Z" fill="#191847"/>
<path fill-rule="evenodd" clip-rule="evenodd" d="M224.816 386.843L256.772 415.102C256.772 415.102 267.93 376.424 283.491 356.254L275.036 346.194C257.414 352.516 242.906 366.656 224.816 386.843Z" fill="#DDE3E9"/>
<path fill-rule="evenodd" clip-rule="evenodd" d="M274.826 346.021L274.824 346.007C274.824 346.007 235.002 349.587 198.998 388.635L214.574 402.408C215.88 400.44 217.215 398.537 218.574 396.698L239.491 415.195C239.491 415.195 265.963 372.277 275.63 358.939L278.789 349.766C278.789 349.766 276.562 347.614 275.465 346.574L274.835 346.017C274.832 346.018 274.829 346.02 274.826 346.021Z" fill="#2F3676"/>
<path fill-rule="evenodd" clip-rule="evenodd" d="M218.443 396.876C224.35 388.856 230.706 382.042 236.957 376.316C231.403 384.758 225.226 395.363 224.27 402.029L218.443 396.876Z" fill="black" fill-opacity="0.1"/>
<path fill-rule="evenodd" clip-rule="evenodd" d="M233.679 387.219L247.967 391.222L244.008 396.354L233.679 387.219Z" fill="white" fill-opacity="0.2"/>
</mask>
<g mask="url(#mask3)">
<rect x="127.888" y="236.944" width="177.068" height="337.022" fill="black" fill-opacity="0.26"/>
</g>
<path fill-rule="evenodd" clip-rule="evenodd" d="M195.259 139.464C202.982 144.12 210.571 146.369 214.133 145.451C223.065 143.148 223.887 110.471 216.975 97.5888C210.064 84.7064 174.533 79.0914 172.742 104.616C172.121 113.474 175.841 121.38 181.336 127.831L171.482 173.761H200.107L195.259 139.464Z" fill="#B28B67"/>
<path fill-rule="evenodd" clip-rule="evenodd" d="M196.69 107.434C199.166 103.748 201.543 100.936 204.635 99.3027C217.219 99.5015 218.692 97.2455 218.692 89.6419C216.66 88.1875 209.488 85.7385 201.457 85.0496C197.36 83.8771 192.506 84.0976 187.831 86.0534C182.059 87.691 177.172 91.2178 175.013 97.8205C167.203 111.299 173.131 125.329 181.119 130.122C183.246 127.603 185.102 125.161 186.757 122.824C185.427 121.525 184.602 119.711 184.602 117.705C184.602 113.752 187.806 110.549 191.758 110.549C192.048 110.549 192.335 110.566 192.616 110.6C192.794 115.541 193.526 132.259 195.448 138.066C197.715 144.912 210.941 146.593 215.553 146.593C219.538 146.593 219.402 142.82 219.304 140.116C219.29 139.727 219.277 139.36 219.277 139.029C219.277 138.338 218.379 138.34 217.364 138.342C216.046 138.345 214.531 138.348 214.531 136.835C214.531 135.187 216.809 133.923 218.847 132.791C220.119 132.085 221.298 131.431 221.772 130.768C223.267 128.675 223.771 125.852 221.515 125.852C220.282 125.852 218.59 126.563 216.555 127.418C213.483 128.709 209.627 130.329 205.385 130.329C198.377 130.329 196.711 107.719 196.69 107.434Z" fill="#191847"/>
<path fill-rule="evenodd" clip-rule="evenodd" d="M152.438 274.477L197.253 421.275L218.963 546.117H235.985L213.045 274.477H152.438Z" fill="#997659"/>
<path fill-rule="evenodd" clip-rule="evenodd" d="M136.405 274.477C139.449 355.077 135.867 396.652 135.186 403.974C134.505 411.297 125.176 458.779 103.091 548.575L121.229 542.333C156.132 459.977 168.026 417.175 172.029 406.361C176.032 395.547 186.664 351.585 203.926 274.477H136.405Z" fill="#B28B67"/>
<path fill-rule="evenodd" clip-rule="evenodd" d="M106.15 540.741C105.081 540.26 103.807 540.737 103.402 541.837C102.526 544.216 101.228 548.103 101.228 550.242C101.228 553.47 102.302 559.662 102.302 559.662C106.039 559.662 169.472 559.662 169.472 559.662C169.472 559.662 172.09 550.989 166.449 550.298C160.808 549.606 157.077 549.049 157.077 549.049L125.678 535.024C125.163 534.794 124.56 535.035 124.346 535.557L122.264 540.616C122.264 540.616 117.042 543.058 113.777 543.058C111.669 543.058 108.284 541.702 106.15 540.741Z" fill="#E4E4E4"/>
<path fill-rule="evenodd" clip-rule="evenodd" d="M218.097 540.741C217.028 540.26 215.754 540.737 215.349 541.837C214.473 544.216 213.175 548.103 213.175 550.242C213.175 553.47 214.248 559.662 214.248 559.662C217.985 559.662 281.418 559.662 281.418 559.662C281.418 559.662 284.037 550.989 278.396 550.298C272.754 549.606 269.023 549.049 269.023 549.049L237.625 535.024C237.11 534.794 236.507 535.035 236.292 535.557L234.21 540.616C234.21 540.616 228.988 543.058 225.723 543.058C223.615 543.058 220.231 541.702 218.097 540.741Z" fill="#E4E4E4"/>
<path fill-rule="evenodd" clip-rule="evenodd" d="M146.483 274.477L165.538 349.269H223.739L215.061 274.477H146.483Z" fill="#69A1AC"/>
<path fill-rule="evenodd" clip-rule="evenodd" d="M135.765 274.477C126.361 302.722 132.192 349.269 132.192 349.269H191.584L207.915 274.477H135.765Z" fill="#89C5CC"/>
<path fill-rule="evenodd" clip-rule="evenodd" d="M287.836 302.72L258.958 265.436L245.148 283.068L277.061 308.433C283.857 323.377 288.148 330.024 289.933 328.375C291.438 326.984 291.092 325.179 290.772 323.517C290.523 322.222 290.291 321.013 290.964 320.154C292.501 318.192 299.314 320.397 305.69 322.765C312.066 325.134 310.997 321.694 309.835 319.813C304.322 313.931 296.989 308.233 287.836 302.72ZM83.9732 322.34C88.4194 315.817 109.807 249.16 109.807 249.16L134.475 252.726C134.475 252.726 101.263 323.176 98.8071 327.427C95.6174 332.95 98.4422 342.022 100.358 348.173C100.654 349.125 100.929 350.007 101.156 350.795C97.1356 351.953 95.6056 349.655 93.9925 347.233C92.1706 344.497 90.2428 341.602 84.5015 343.347C82.2834 344.022 80.1524 344.888 78.0704 345.734C70.8787 348.658 64.272 351.344 56.6815 345.058C55.4781 344.061 54.4638 340.803 58.2875 338.906C67.8135 334.179 81.7995 325.529 83.9732 322.34Z" fill="#B28B67"/>
<path fill-rule="evenodd" clip-rule="evenodd" d="M194.477 155.636L204.936 155.323C216.357 201.64 241.457 245.795 280.235 287.786L241.484 323.285C204.845 266.105 185.24 209.669 194.477 155.636Z" fill="#191847"/>
<path fill-rule="evenodd" clip-rule="evenodd" d="M131.951 277.496L222.894 290.277C222.894 290.277 202.07 209.129 209.605 155.512L182.746 147.577C156.321 179.16 144.244 220.919 131.951 277.496Z" fill="#DDE3E9"/>
<path fill-rule="evenodd" clip-rule="evenodd" d="M182.162 147.515L182.143 147.492C182.143 147.492 110.832 199.983 85.1449 310.593L129.472 316.822C129.805 311.838 130.265 306.933 130.839 302.114L190.367 310.48C190.367 310.48 193.864 204.095 197.673 169.364L193.702 149.523C193.702 149.523 187.165 148.311 183.966 147.748L182.176 147.497C182.171 147.503 182.167 147.509 182.162 147.515Z" fill="#2F3676"/>
<path fill-rule="evenodd" clip-rule="evenodd" d="M130.784 302.579C133.25 281.586 137.871 262.199 143.473 244.853C142.13 266.181 141.953 292.047 147.368 304.91L130.784 302.579Z" fill="black" fill-opacity="0.1"/>
<path fill-rule="evenodd" clip-rule="evenodd" d="M149.093 267.883L180.406 258.372L178.489 272.014L149.093 267.883Z" fill="white" fill-opacity="0.2"/>
</svg>
