<svg width="237" height="211" viewBox="0 0 237 211" fill="none" xmlns="http://www.w3.org/2000/svg">
<path fill-rule="evenodd" clip-rule="evenodd" d="M71.5 210.673C94.9721 210.673 114 200.6 114 188.173C114 175.747 94.9721 165.673 71.5 165.673C48.0279 165.673 29 175.747 29 188.173C29 200.6 48.0279 210.673 71.5 210.673Z" fill="#F2F2F2"/>
<path fill-rule="evenodd" clip-rule="evenodd" d="M121 203.673C121 176.059 98.8381 153.673 71.5 153.673C44.1619 153.673 22 176.059 22 203.673" fill="#F0A20C"/>
<rect x="69" width="5" height="161" fill="#F0A20C"/>
<g opacity="0.7">
<path fill-rule="evenodd" clip-rule="evenodd" d="M184 137C201.545 137 215.768 128.87 215.768 118.842C215.768 108.814 201.545 100.684 184 100.684C166.455 100.684 152.232 108.814 152.232 118.842C152.232 128.87 166.455 137 184 137Z" fill="#F2F2F2"/>
<path fill-rule="evenodd" clip-rule="evenodd" d="M221 131.351C221 109.066 204.435 91 184 91C163.565 91 147 109.066 147 131.351" fill="#F0A20C"/>
<rect x="182" width="5" height="114" fill="#F0A20C"/>
</g>
</svg>
