<svg width="195" height="63" viewBox="0 0 195 63" fill="none" xmlns="http://www.w3.org/2000/svg">
<path d="M89.56 17.48H100.72C102.933 17.48 104.6 17.84 105.72 18.56C106.84 19.2533 107.587 20.2533 107.96 21.56C108.36 22.8667 108.56 24.6133 108.56 26.8C108.56 28.88 108.373 30.5733 108 31.88C107.653 33.1867 106.907 34.2267 105.76 35C104.613 35.7733 102.92 36.16 100.68 36.16H95.76V45H89.56V17.48ZM98.56 31C99.7333 31 100.573 30.9067 101.08 30.72C101.587 30.5067 101.92 30.1333 102.08 29.6C102.24 29.04 102.32 28.1067 102.32 26.8C102.32 25.4933 102.24 24.5733 102.08 24.04C101.92 23.48 101.587 23.1067 101.08 22.92C100.573 22.7333 99.7333 22.64 98.56 22.64H95.76V31H98.56ZM131.415 17.48V32.68C131.415 36.36 131.229 39.0267 130.855 40.68C130.482 42.3333 129.629 43.52 128.295 44.24C126.962 44.96 124.775 45.32 121.735 45.32C118.695 45.32 116.509 44.96 115.175 44.24C113.842 43.52 112.975 42.3333 112.575 40.68C112.202 39 112.015 36.3333 112.015 32.68V17.48H118.255V34.32C118.255 36.2667 118.309 37.6133 118.415 38.36C118.549 39.1067 118.842 39.6 119.295 39.84C119.749 40.08 120.562 40.2 121.735 40.2C122.909 40.2 123.709 40.08 124.135 39.84C124.589 39.6 124.869 39.12 124.975 38.4C125.109 37.6533 125.175 36.2933 125.175 34.32V17.48H131.415ZM136.318 45V17.48H142.518V39.64H151.638V45H136.318ZM163.431 45.32C160.097 45.32 157.151 45.0933 154.591 44.64V39.76C157.897 40.0267 160.244 40.16 161.631 40.16C162.724 40.16 163.577 40.1067 164.191 40C164.804 39.8933 165.244 39.7067 165.511 39.44C165.751 39.2 165.897 38.9067 165.951 38.56C166.031 38.2133 166.071 37.72 166.071 37.08C166.071 36.2267 166.017 35.6267 165.911 35.28C165.804 34.9067 165.577 34.64 165.231 34.48C164.911 34.32 164.351 34.1733 163.551 34.04L159.111 33.4C157.084 33.1067 155.711 32.32 154.991 31.04C154.271 29.76 153.911 27.92 153.911 25.52C153.911 23.2 154.297 21.4267 155.071 20.2C155.844 18.9733 156.897 18.16 158.231 17.76C159.564 17.36 161.257 17.16 163.311 17.16C165.844 17.16 168.444 17.4267 171.111 17.96V22.76C168.711 22.4667 166.577 22.32 164.711 22.32C162.737 22.32 161.471 22.5067 160.911 22.88C160.591 23.0667 160.391 23.3333 160.311 23.68C160.231 24 160.191 24.5067 160.191 25.2C160.191 25.9733 160.231 26.52 160.311 26.84C160.391 27.16 160.564 27.4 160.831 27.56C161.124 27.6933 161.617 27.8133 162.311 27.92L167.071 28.6C168.137 28.76 169.017 29.0267 169.711 29.4C170.431 29.7733 171.017 30.4133 171.471 31.32C172.031 32.4933 172.311 34.1733 172.311 36.36C172.311 38.92 171.951 40.8533 171.231 42.16C170.511 43.4667 169.524 44.32 168.271 44.72C167.044 45.12 165.431 45.32 163.431 45.32ZM176.435 45V17.48H192.995V22.64H182.635V28.52H191.515V33.68H182.635V39.84H192.995V45H176.435Z" fill="white"/>
<circle cx="6.72353" cy="30.2496" r="6.72353" fill="#F0A20C"/>
<circle cx="69.4765" cy="30.2496" r="6.72353" fill="#F0A20C"/>
<path d="M6.72353 30.2243H15.8799C16.233 30.2243 16.56 30.038 16.7401 29.7342L20.6903 23.0706C21.1042 22.3724 22.1337 22.4322 22.464 23.1737L31.9919 44.5644C32.3789 45.4333 33.646 45.3221 33.8757 44.3991L41.0927 15.4017C41.3357 14.4253 42.7062 14.3788 43.0149 15.3364L50.9289 39.8865C51.1783 40.6601 52.1976 40.8288 52.6829 40.1767L59.79 30.6272C59.9787 30.3737 60.2762 30.2243 60.5923 30.2243H69.1563" stroke="white" stroke-width="5"/>
<circle cx="69.4765" cy="30.2495" r="2.88151" fill="#393EB6"/>
<circle cx="6.72354" cy="30.2495" r="2.88151" fill="#393EB6"/>
</svg>
